<svg width="30" height="30" viewBox="0 0 30 30" fill="none" xmlns="http://www.w3.org/2000/svg">
<path fill-rule="evenodd" clip-rule="evenodd" d="M15 30C23.2843 30 30 23.2843 30 15C30 6.71573 23.2843 0 15 0C6.71573 0 0 6.71573 0 15C0 23.2843 6.71573 30 15 30Z" fill="#EA4C89"/>
<path fill-rule="evenodd" clip-rule="evenodd" d="M15 7C10.5833 7 7 10.5833 7 15C7 19.4208 10.5833 23 15 23C19.4167 23 23 19.4208 23 15C23 10.5833 19.4167 7 15 7ZM20.0792 10.6875C20.9792 11.7458 21.55 13.0875 21.65 14.5583C20.2083 14.4833 18.4833 14.4833 17.1 14.6125C16.925 14.1708 16.7458 13.7375 16.55 13.3208C18.1458 12.6292 19.375 11.7208 20.0792 10.6875ZM15 8.33333C16.6167 8.33333 18.1 8.90833 19.2542 9.86667C18.5292 10.7833 17.3917 11.5792 15.975 12.1833C15.2 10.75 14.3083 9.51667 13.3583 8.54583C13.8875 8.4125 14.4333 8.33333 15 8.33333ZM11.9833 9.0625C12.9458 10.0208 13.85 11.2417 14.6417 12.6708C13.1375 13.1292 11.4125 13.3917 9.57083 13.3917C9.22083 13.3917 8.87917 13.3792 8.54167 13.3583C9.02083 11.4792 10.2917 9.92083 11.9833 9.0625ZM8.34583 14.6833C8.725 14.7 9.10833 14.7083 9.49583 14.7042C11.5958 14.6792 13.55 14.35 15.2292 13.8125C15.3875 14.1417 15.5375 14.4792 15.6792 14.825C15.45 14.8792 15.2458 14.9375 15.0833 15.0042C12.7875 15.9667 10.9792 17.5208 10 19.4C8.96667 18.225 8.33333 16.6875 8.33333 15C8.33333 14.8917 8.3375 14.7875 8.34583 14.6833ZM15 21.6667C13.4583 21.6667 12.0417 21.1417 10.9125 20.2625C11.8 18.5042 13.3833 17.05 15.3792 16.1458C15.5667 16.0583 15.8167 15.9875 16.1042 15.925C16.3417 16.5833 16.5542 17.2667 16.7417 17.975C17.0292 19.0792 17.2333 20.1708 17.3583 21.2292C16.625 21.5083 15.8333 21.6667 15 21.6667ZM18.6042 20.6042C18.4792 19.5333 18.275 18.4333 17.9833 17.3167C17.8417 16.775 17.6792 16.25 17.5042 15.7375C18.8125 15.6292 20.3792 15.6458 21.625 15.7375C21.4 17.7833 20.25 19.5417 18.6042 20.6042Z" fill="white"/>
</svg>
