<svg width="46" height="57" viewBox="0 0 46 57" fill="none" xmlns="http://www.w3.org/2000/svg">
<path fill-rule="evenodd" clip-rule="evenodd" d="M30.7065 18.1942L44.6752 43.0606C45.6854 45.0846 46.0372 47.0448 45.9968 48.8571C45.8939 53.4886 42.8065 57 38.4704 57H7.8967C3.55203 57 0.249467 53.5025 0.122698 48.8571C0.073472 47.0522 0.563223 45.0743 1.56829 43.0606L15.413 18.1942V2.03571H13.5013V0H15.4143H17.3247V2.03571V4.07143H23.0597V6.10714H17.3247V10.1786H21.148V12.2143H17.3247V16.2857H23.0597V18.3214H17.3247V18.754L17.0862 19.2431L15.3314 22.3929H21.148V24.4286H14.1968L3.26575 44.0422C1.69291 47.2222 1.57247 49.5562 2.99393 52.0755C4.01836 53.8911 5.80543 54.9643 7.89682 54.9643H38.4704C40.5433 54.9643 42.3052 53.9039 43.3171 52.1103C43.8651 51.1394 44.07 50.0454 44.0991 48.8571C44.1365 47.3295 43.8301 45.6587 43.0236 44.0278L29.0952 19.2386L28.7948 18.7563V2.03571V0H30.7054H32.6182V2.03571H30.7065V18.1942ZM4.10486 47.8604C4.10486 46.6574 4.58625 44.933 5.4115 43.5918L13.9195 28.5H32.2274L40.8104 43.6046C41.6399 44.9526 42.0485 46.6373 42.0154 47.8445C41.9311 50.9296 40.1184 52.9286 36.5574 52.9286H9.56297C5.99505 52.9286 4.10486 51.37 4.10486 47.8604ZM31.1492 30.5357L39.1744 44.6419L39.1925 44.6577L39.2115 44.6809C39.8545 45.7257 40.1251 47.006 40.1047 47.7573C40.0773 48.7547 39.8088 49.5361 39.3062 50.0214C38.7358 50.5721 37.7853 50.893 36.5572 50.893H9.56285C8.24092 50.893 7.26046 50.6085 6.72758 50.1301C6.55171 49.9723 6.01619 49.4757 6.01619 47.8287C6.01619 47.0726 6.35755 45.7443 7.01015 44.6839L7.0313 44.6455L7.05113 44.6402L15.0024 30.5357H31.1492Z" fill="#6FB048"/>
</svg>
