<svg width="30" height="30" viewBox="0 0 30 30" fill="none" xmlns="http://www.w3.org/2000/svg">
<path fill-rule="evenodd" clip-rule="evenodd" d="M15 30C23.2843 30 30 23.2843 30 15C30 6.71573 23.2843 0 15 0C6.71573 0 0 6.71573 0 15C0 23.2843 6.71573 30 15 30Z" fill="#333333"/>
<path fill-rule="evenodd" clip-rule="evenodd" d="M11.8672 16.3116C11.5015 16.3116 11.1886 16.4869 10.9371 16.8463C10.6849 17.1995 10.5603 17.6368 10.5603 18.1559C10.5603 18.6757 10.6873 19.1146 10.9371 19.4688C11.1886 19.8246 11.4999 20.0009 11.8672 20.0009C12.2077 20.0009 12.5042 19.823 12.754 19.4688C13.0054 19.1146 13.1308 18.6757 13.1308 18.1559C13.1308 17.6385 13.0038 17.2005 12.754 16.8463C12.5041 16.4885 12.2101 16.3116 11.8672 16.3116ZM18.1337 16.3116C17.7711 16.3116 17.4565 16.4869 17.2043 16.8463C16.9529 17.1995 16.8291 17.6368 16.8291 18.1559C16.8291 18.6757 16.9569 19.1146 17.2043 19.4688C17.4565 19.8246 17.7695 20.0009 18.1337 20.0009C18.4758 20.0009 18.7713 19.823 19.0228 19.4688C19.2751 19.1146 19.4003 18.6757 19.4003 18.1559C19.4003 17.6385 19.2735 17.2005 19.0228 16.8463C18.7713 16.4885 18.4797 16.3116 18.1337 16.3116ZM22.5879 11.5H22.5856C22.5856 11.5 22.6975 10.9057 22.5982 9.8675C22.5107 8.82933 22.2987 7.87425 21.9518 7C21.9518 7 21.7745 7.03167 21.4403 7.12067C21.106 7.20967 20.5551 7.38313 19.7991 7.736C19.0558 8.09183 18.2763 8.5605 17.462 9.13204C16.9087 8.96812 16.0826 8.88458 14.9767 8.88458C13.9228 8.88458 13.096 8.96842 12.4921 9.13229C10.7045 7.8465 9.21158 7.13458 7.99848 7C7.65396 7.87425 7.44192 8.83296 7.35525 9.87375C7.25912 10.9129 7.37257 11.5125 7.37257 11.5125C6.40005 12.6063 6 14.1892 6 15.4914C6 16.5015 6.02638 17.4113 6.24555 18.2197C6.4686 19.0243 6.75315 19.6835 7.09135 20.1873C7.43655 20.6923 7.85352 21.1367 8.3572 21.518C8.85699 21.9061 9.31886 22.1831 9.73582 22.3603C10.1552 22.5425 10.6328 22.6771 11.1783 22.7712C11.7127 22.8706 12.1179 22.9231 12.4001 22.9377C12.4001 22.9377 13.5226 23 14.98 23C16.4374 23 17.5575 22.9377 17.5575 22.9377C17.8389 22.923 18.2449 22.8696 18.7816 22.7712C19.3247 22.6754 19.8048 22.5376 20.2225 22.3603C20.6395 22.1815 21.1022 21.9061 21.6043 21.518C22.1064 21.1417 22.5226 20.6955 22.8678 20.1873C23.206 19.6835 23.489 19.0243 23.7136 18.2197C23.9336 17.4113 23.96 16.4953 23.96 15.4852C23.9599 14.2245 23.5583 12.625 22.5879 11.5ZM19.9664 21.2352C18.8494 21.7807 17.2043 22 15.0225 22L14.9366 21.9984C12.754 21.9984 11.1136 21.7797 10.0117 21.2313C8.90894 20.6858 8.3572 19.5623 8.3572 17.8672C8.3572 16.8535 8.70084 16.0343 9.37875 15.4044C9.67356 15.133 10.0377 14.9453 10.487 14.8329C10.9332 14.7263 11.3431 14.7178 11.7285 14.7302C12.1053 14.7475 12.6326 14.8217 13.3058 14.8745C13.9789 14.9285 14.4802 15 14.98 15C15.4489 15 16.0709 14.9185 17.0688 14.835C18.0706 14.7529 18.8124 14.7112 19.2924 14.7934C19.785 14.8768 20.2139 15.0518 20.5804 15.4076C21.2913 16.0639 21.6469 16.887 21.6469 17.8695C21.6468 19.5639 21.0801 20.689 19.9664 21.2352Z" fill="white"/>
</svg>
