<svg width="30" height="30" viewBox="0 0 30 30" fill="none" xmlns="http://www.w3.org/2000/svg">
<path fill-rule="evenodd" clip-rule="evenodd" d="M15 30C23.2843 30 30 23.2843 30 15C30 6.71573 23.2843 0 15 0C6.71573 0 0 6.71573 0 15C0 23.2843 6.71573 30 15 30Z" fill="#3F729B"/>
<path fill-rule="evenodd" clip-rule="evenodd" d="M11.7295 11.6916C12.6087 10.8125 13.7775 10.3231 15.0208 10.3231C16.264 10.3231 17.4328 10.8151 18.312 11.6942C18.8698 12.252 19.2683 12.9223 19.4853 13.6703H22.9792V8.97424C22.9792 7.87253 22.1277 7.021 21.0259 7.021H9.05712C7.9554 7.021 7.02075 7.87253 7.02075 8.97424V13.6703H10.5562C10.7732 12.9223 11.1717 12.2494 11.7295 11.6916ZM17.3301 12.6216C18.6285 13.92 18.6285 16.025 17.3301 17.3234C16.0317 18.6218 13.9267 18.6218 12.6283 17.3234C11.3299 16.025 11.3299 13.92 12.6283 12.6216C13.9267 11.3232 16.0317 11.3232 17.3301 12.6216ZM21.1174 11.0106C21.4112 11.0106 21.6493 10.7724 21.6493 10.4787V8.88281C21.6493 8.589 21.4112 8.35087 21.1174 8.35087H19.5215C19.2277 8.35087 18.9896 8.58904 18.9896 8.88281V10.4787C18.9896 10.7725 19.2278 11.0106 19.5215 11.0106H21.1174ZM15.0208 19.6322C16.264 19.6322 17.4328 19.1533 18.312 18.2741C19.1895 17.3966 19.6734 16.2054 19.6752 15.0002H22.9792V20.9431C22.9792 22.0448 22.1277 22.9794 21.0259 22.9794H9.05712C7.9554 22.9794 7.02075 22.0448 7.02075 20.9431V15.0002H10.3663C10.3681 16.2054 10.852 17.3993 11.7295 18.2768C12.6087 19.1559 13.7775 19.6322 15.0208 19.6322Z" fill="white"/>
</svg>
