<svg width="30" height="30" viewBox="0 0 30 30" fill="none" xmlns="http://www.w3.org/2000/svg">
<path fill-rule="evenodd" clip-rule="evenodd" d="M15 30C23.2843 30 30 23.2843 30 15C30 6.71573 23.2843 0 15 0C6.71573 0 0 6.71573 0 15C0 23.2843 6.71573 30 15 30Z" fill="#55ACEE"/>
<path fill-rule="evenodd" clip-rule="evenodd" d="M24.4336 9.77734C23.7539 10.0781 23.0273 10.2812 22.2617 10.375C23.043 9.90625 23.6445 9.16406 23.9258 8.28125C23.1953 8.71484 22.3867 9.03125 21.5234 9.19922C20.832 8.46094 19.8477 8 18.7617 8C16.6719 8 14.9805 9.69531 14.9805 11.7852C14.9805 12.082 15.0117 12.3711 15.0781 12.6484C11.9336 12.4922 9.14453 10.9844 7.28125 8.69141C6.95703 9.25 6.76953 9.90234 6.76953 10.5938C6.76953 11.9062 7.44141 13.0664 8.45703 13.7461C7.83203 13.7305 7.24609 13.5586 6.73828 13.2734C6.73828 13.2891 6.73828 13.3047 6.73828 13.3203C6.73828 15.1562 8.04297 16.6836 9.77344 17.0312C9.45703 17.1172 9.12109 17.1641 8.77734 17.1641C8.53516 17.1641 8.29688 17.1406 8.06641 17.0938C8.54688 18.5977 9.94531 19.6914 11.6016 19.7227C10.3086 20.7383 8.67578 21.3438 6.90234 21.3438C6.59766 21.3438 6.29688 21.3242 6 21.2891C7.66797 22.375 9.65625 23 11.7891 23C18.7539 23 22.5586 17.2305 22.5586 12.2266C22.5586 12.0625 22.5547 11.8984 22.5469 11.7383C23.2852 11.2031 23.9258 10.5391 24.4336 9.77734Z" fill="white"/>
</svg>
