<svg width="14" height="14" viewBox="0 0 14 14" fill="none" xmlns="http://www.w3.org/2000/svg">
<path opacity="0.7" fill-rule="evenodd" clip-rule="evenodd" d="M13.1239 9.97656C12.5536 9.39062 10.9325 8.29297 9.87003 8.29297C9.62394 8.29297 9.40909 8.34766 9.23331 8.46094C8.71378 8.79297 8.29972 9.05078 8.1005 9.05078C7.99112 9.05078 7.87394 8.95312 7.61612 8.73047L7.57315 8.69141C6.85831 8.07031 6.70597 7.91016 6.42862 7.62109L6.35831 7.54688C6.30753 7.49609 6.26456 7.44922 6.22159 7.40625C5.9794 7.15625 5.80362 6.97656 5.18253 6.27344L5.15519 6.24219C4.85831 5.90625 4.663 5.6875 4.65128 5.52734C4.63956 5.37109 4.77628 5.11719 5.12394 4.64453C5.54581 4.07422 5.56144 3.37109 5.17472 2.55469C4.86612 1.91016 4.36222 1.29297 3.9169 0.75L3.87784 0.703125C3.49503 0.234375 3.04972 0 2.55362 0C2.00284 0 1.54581 0.296875 1.30362 0.453125C1.28409 0.464844 1.26456 0.480469 1.24503 0.492188C0.70206 0.835938 0.307529 1.30859 0.159092 1.78906C-0.0635646 2.51172 -0.212002 3.44922 0.854405 5.39844C1.77628 7.08594 2.61222 8.21875 3.94034 9.58203C5.19034 10.8633 5.74503 11.2773 6.98722 12.1758C8.37003 13.1758 9.69815 13.75 10.6278 13.75C11.4911 13.75 12.1708 13.75 13.1396 12.582C14.1552 11.3555 13.7333 10.6055 13.1239 9.97656Z" fill="white"/>
</svg>
